<svg width="100" height="100" viewBox="0 0 100 100" fill="none" xmlns="http://www.w3.org/2000/svg">
<g clip-path="url(#clip0_16_386)">
<path fill-rule="evenodd" clip-rule="evenodd" d="M21.875 37.5C21.0462 37.5 20.2513 37.8292 19.6653 38.4153C19.0792 39.0013 18.75 39.7962 18.75 40.625V90.625C18.75 91.4538 19.0792 92.2487 19.6653 92.8347C20.2513 93.4208 21.0462 93.75 21.875 93.75H78.125C78.9538 93.75 79.7487 93.4208 80.3347 92.8347C80.9208 92.2487 81.25 91.4538 81.25 90.625V40.625C81.25 39.7962 80.9208 39.0013 80.3347 38.4153C79.7487 37.8292 78.9538 37.5 78.125 37.5H65.625C64.7962 37.5 64.0013 37.1708 63.4153 36.5847C62.8292 35.9987 62.5 35.2038 62.5 34.375C62.5 33.5462 62.8292 32.7513 63.4153 32.1653C64.0013 31.5792 64.7962 31.25 65.625 31.25H78.125C80.6114 31.25 82.996 32.2377 84.7541 33.9959C86.5123 35.754 87.5 38.1386 87.5 40.625V90.625C87.5 93.1114 86.5123 95.496 84.7541 97.2541C82.996 99.0123 80.6114 100 78.125 100H21.875C19.3886 100 17.004 99.0123 15.2459 97.2541C13.4877 95.496 12.5 93.1114 12.5 90.625V40.625C12.5 38.1386 13.4877 35.754 15.2459 33.9959C17.004 32.2377 19.3886 31.25 21.875 31.25H34.375C35.2038 31.25 35.9987 31.5792 36.5847 32.1653C37.1708 32.7513 37.5 33.5462 37.5 34.375C37.5 35.2038 37.1708 35.9987 36.5847 36.5847C35.9987 37.1708 35.2038 37.5 34.375 37.5H21.875Z" fill="black"/>
<path fill-rule="evenodd" clip-rule="evenodd" d="M47.7875 0.912471C48.0778 0.621451 48.4227 0.390558 48.8023 0.233018C49.182 0.0754773 49.589 -0.00561523 50 -0.00561523C50.4111 -0.00561523 50.8181 0.0754773 51.1978 0.233018C51.5774 0.390558 51.9223 0.621451 52.2125 0.912471L70.9625 19.6625C71.5493 20.2493 71.879 21.0451 71.879 21.875C71.879 22.7048 71.5493 23.5007 70.9625 24.0875C70.3758 24.6743 69.5799 25.0039 68.75 25.0039C67.9202 25.0039 67.1243 24.6743 66.5375 24.0875L53.125 10.6687V65.625C53.125 66.4538 52.7958 67.2486 52.2098 67.8347C51.6237 68.4207 50.8288 68.75 50 68.75C49.1712 68.75 48.3764 68.4207 47.7903 67.8347C47.2043 67.2486 46.875 66.4538 46.875 65.625V10.6687L33.4625 24.0875C33.172 24.378 32.8271 24.6085 32.4474 24.7657C32.0678 24.923 31.6609 25.0039 31.25 25.0039C30.4202 25.0039 29.6243 24.6743 29.0375 24.0875C28.747 23.7969 28.5165 23.452 28.3593 23.0724C28.202 22.6927 28.1211 22.2859 28.1211 21.875C28.1211 21.0451 28.4508 20.2493 29.0375 19.6625L47.7875 0.912471Z" fill="black"/>
</g>
<defs>
<clipPath id="clip0_16_386">
<rect width="100" height="100" fill="white"/>
</clipPath>
</defs>
</svg>
